<svg id='Email_24' width='24' height='24' viewBox='0 0 24 24' xmlns='http://www.w3.org/2000/svg' xmlns:xlink='http://www.w3.org/1999/xlink'><rect width='24' height='24' stroke='none' fill='#000000' opacity='0'/>


<g transform="matrix(0.5 0 0 0.5 12 12)" >
<path style="stroke: none; stroke-width: 1; stroke-dasharray: none; stroke-linecap: butt; stroke-dashoffset: 0; stroke-linejoin: miter; stroke-miterlimit: 4; fill: rgb(0,0,0); fill-rule: nonzero; opacity: 1;" transform=" translate(-24, -24)" d="M 24 4 C 12.972292 4 4 12.972292 4 24 C 4 35.027708 12.972292 44 24 44 C 26.46846 44 28.839993 43.551537 31.027344 42.730469 C 31.535190104413996 42.54651444087768 31.90493650468696 42.103750467527334 31.995398035283642 41.57124351257513 C 32.08585956588033 41.038736557622926 31.883068122545765 40.49871066276039 31.464458248186094 40.15737106839879 C 31.045848373826423 39.81603147403719 30.47605733832466 39.726084197960425 29.972656 39.921875 C 28.116007 40.618807 26.10554 41 24 41 C 14.593708 41 7 33.406292 7 24 C 7 14.593708 14.593708 7 24 7 C 33.406292 7 41 14.593708 41 24 L 41 26.5 C 41 29.003499 39.003499 31 36.5 31 C 33.996501 31 32 29.003499 32 26.5 L 32 24 L 32 15.5 C 32.00765043431823 14.959046125133643 31.723437055746007 14.455877953142583 31.256190725428507 14.183168417770215 C 30.788944395111006 13.910458882397846 30.211055604888994 13.910458882397846 29.743809274571493 14.183168417770215 C 29.276562944253993 14.455877953142583 28.992349565681767 14.959046125133643 29 15.5 L 29 16.566406 C 27.419516 14.984362 25.331498 14 23 14 C 17.942095 14 14 18.59527 14 24 C 14 29.40473 17.942095 34 23 34 C 25.872367 34 28.382558 32.516731 30.017578 30.246094 C 31.319489 32.483151 33.739215 34 36.5 34 C 40.624501 34 44 30.624501 44 26.5 L 44 24 C 44 12.972292 35.027708 4 24 4 z M 23 17 C 26.214095 17 29 20.03073 29 24 C 29 27.96927 26.214095 31 23 31 C 19.785905 31 17 27.96927 17 24 C 17 20.03073 19.785905 17 23 17 z" stroke-linecap="round" />
</g>
</svg>