<svg id='Shipping_Truck_Fast_24' width='24' height='24' viewBox='0 0 24 24' xmlns='http://www.w3.org/2000/svg' xmlns:xlink='http://www.w3.org/1999/xlink'><rect width='24' height='24' stroke='none' fill='#000000' opacity='0'/>


<g transform="matrix(0.83 0 0 0.83 12 12)" >
<g style="" >
<g transform="matrix(1 0 0 1 1.75 -1.65)" >
<path style="stroke: rgb(0,0,0); stroke-width: 1; stroke-dasharray: none; stroke-linecap: round; stroke-dashoffset: 0; stroke-linejoin: round; stroke-miterlimit: 10; fill: none; fill-rule: nonzero; opacity: 1;" transform=" translate(-13.75, -10.35)" d="M 10.25 6 L 15.75 6 C 16.55 6 17.25 6.7 17.25 7.5 L 17.25 14.7" stroke-linecap="round" />
</g>
<g transform="matrix(1 0 0 1 -5.25 5)" >
<path style="stroke: rgb(0,0,0); stroke-width: 1; stroke-dasharray: none; stroke-linecap: round; stroke-dashoffset: 0; stroke-linejoin: round; stroke-miterlimit: 10; fill: none; fill-rule: nonzero; opacity: 1;" transform=" translate(-6.75, -17)" d="M 9.25 17 L 4.25 17" stroke-linecap="round" />
</g>
<g transform="matrix(1 0 0 1 8.25 0.25)" >
<path style="stroke: rgb(0,0,0); stroke-width: 1; stroke-dasharray: none; stroke-linecap: round; stroke-dashoffset: 0; stroke-linejoin: round; stroke-miterlimit: 10; fill: none; fill-rule: nonzero; opacity: 1;" transform=" translate(-20.25, -12.25)" d="M 17.25 7.5 L 20.25 7.5 C 21.95 7.5 23.25 8.8 23.25 10.5 L 23.25 15.5 C 23.25 16.3 22.55 17 21.75 17 L 19.55 17" stroke-linecap="round" />
</g>
<g transform="matrix(1 0 0 1 5.65 4.6)" >
<path style="stroke: rgb(0,0,0); stroke-width: 1; stroke-dasharray: none; stroke-linecap: round; stroke-dashoffset: 0; stroke-linejoin: round; stroke-miterlimit: 10; fill: none; fill-rule: nonzero; opacity: 1;" transform=" translate(-17.65, -16.6)" d="M 17.65 18.4999 C 18.6993 18.4999 19.55 17.6493 19.55 16.5999 C 19.55 15.5506 18.6993 14.7 17.65 14.7 C 16.6007 14.7 15.75 15.5506 15.75 16.5999 C 15.75 17.6493 16.6007 18.4999 17.65 18.4999 Z" stroke-linecap="round" />
</g>
<g transform="matrix(1 0 0 1 -0.85 4.6)" >
<path style="stroke: rgb(0,0,0); stroke-width: 1; stroke-dasharray: none; stroke-linecap: round; stroke-dashoffset: 0; stroke-linejoin: round; stroke-miterlimit: 10; fill: none; fill-rule: nonzero; opacity: 1;" transform=" translate(-11.15, -16.6)" d="M 11.15 18.4999 C 12.1993 18.4999 13.05 17.6493 13.05 16.5999 C 13.05 15.5506 12.1993 14.7 11.15 14.7 C 10.1007 14.7 9.25 15.5506 9.25 16.5999 C 9.25 17.6493 10.1007 18.4999 11.15 18.4999 Z" stroke-linecap="round" />
</g>
<g transform="matrix(1 0 0 1 2.5 5)" >
<path style="stroke: rgb(0,0,0); stroke-width: 1; stroke-dasharray: none; stroke-linecap: round; stroke-dashoffset: 0; stroke-linejoin: round; stroke-miterlimit: 10; fill: none; fill-rule: nonzero; opacity: 1;" transform=" translate(-14.5, -17)" d="M 15.75 17 L 13.25 17" stroke-linecap="round" />
</g>
<g transform="matrix(1 0 0 1 9.75 -1.5)" >
<path style="stroke: rgb(0,0,0); stroke-width: 1; stroke-dasharray: none; stroke-linecap: round; stroke-dashoffset: 0; stroke-linejoin: round; stroke-miterlimit: 10; fill: none; fill-rule: nonzero; opacity: 1;" transform=" translate(-21.75, -10.5)" d="M 23.25 10.5 L 20.25 10.5" stroke-linecap="round" />
</g>
<g transform="matrix(1 0 0 1 -5.75 -6.5)" >
<path style="stroke: rgb(0,0,0); stroke-width: 1; stroke-dasharray: none; stroke-linecap: round; stroke-dashoffset: 0; stroke-linejoin: round; stroke-miterlimit: 10; fill: none; fill-rule: nonzero; opacity: 1;" transform=" translate(-6.25, -5.5)" d="M 7.25 5.5 L 5.25 5.5" stroke-linecap="round" />
</g>
<g transform="matrix(1 0 0 1 -6.75 -2.5)" >
<path style="stroke: rgb(0,0,0); stroke-width: 1; stroke-dasharray: none; stroke-linecap: round; stroke-dashoffset: 0; stroke-linejoin: round; stroke-miterlimit: 10; fill: none; fill-rule: nonzero; opacity: 1;" transform=" translate(-5.25, -9.5)" d="M 7.25 9.5 L 3.25 9.5" stroke-linecap="round" />
</g>
<g transform="matrix(1 0 0 1 -8.25 1.5)" >
<path style="stroke: rgb(0,0,0); stroke-width: 1; stroke-dasharray: none; stroke-linecap: round; stroke-dashoffset: 0; stroke-linejoin: round; stroke-miterlimit: 10; fill: none; fill-rule: nonzero; opacity: 1;" transform=" translate(-3.75, -13.5)" d="M 6.75 13.5 L 0.75 13.5" stroke-linecap="round" />
</g>
</g>
</g>
</svg>