<svg id='Logout_24' width='24' height='24' viewBox='0 0 24 24' xmlns='http://www.w3.org/2000/svg' xmlns:xlink='http://www.w3.org/1999/xlink'><rect width='24' height='24' stroke='none' fill='#000000' opacity='0'/>


<g transform="matrix(1.43 0 0 1.43 12 12)" >
<g style="" >
<g transform="matrix(1 0 0 1 4.46 0.09)" >
<path style="stroke: rgb(0,0,0); stroke-width: 1; stroke-dasharray: none; stroke-linecap: round; stroke-dashoffset: 0; stroke-linejoin: round; stroke-miterlimit: 4; fill: none; fill-rule: nonzero; opacity: 1;" transform=" translate(-11.46, -7.09)" d="M 10.0273 9.96143 C 11.2871 8.92929 11.9166 8.29995 12.8986 7.09016 C 11.9166 5.88038 11.2871 5.25103 10.0273 4.2189" stroke-linecap="round" />
</g>
<g transform="matrix(1 0 0 1 1.44 0.09)" >
<path style="stroke: rgb(0,0,0); stroke-width: 1; stroke-dasharray: none; stroke-linecap: round; stroke-dashoffset: 0; stroke-linejoin: round; stroke-miterlimit: 4; fill: none; fill-rule: nonzero; opacity: 1;" transform=" translate(-8.44, -7.09)" d="M 4.00399 7.09033 L 12.8667 7.09033" stroke-linecap="round" />
</g>
<g transform="matrix(1 0 0 1 -1.59 0)" >
<path style="stroke: rgb(0,0,0); stroke-width: 1; stroke-dasharray: none; stroke-linecap: round; stroke-dashoffset: 0; stroke-linejoin: miter; stroke-miterlimit: 4; fill: none; fill-rule: nonzero; opacity: 1;" transform=" translate(-5.41, -7)" d="M 9.83767 1.37878 C 9.51445 1.08087 9.07877 0.884672 8.58695 0.849664 C 7.66706 0.784187 6.71957 0.75 5.75183 0.75 C 4.78409 0.75 3.83659 0.784187 2.9167 0.849665 C 1.90446 0.921717 1.13009 1.67654 1.08437 2.59563 C 1.01375 4.01513 0.976562 5.48869 0.976562 7 C 0.976562 8.5113 1.01375 9.98487 1.08437 11.4044 C 1.13009 12.3235 1.90446 13.0783 2.9167 13.1503 C 3.83659 13.2158 4.78409 13.25 5.75183 13.25 C 6.71957 13.25 7.66706 13.2158 8.58695 13.1503 C 9.07877 13.1153 9.51445 12.9191 9.83767 12.6212" stroke-linecap="round" />
</g>
</g>
</g>
</svg>