<svg id='Pickup_Point_24' width='24' height='24' viewBox='0 0 24 24' xmlns='http://www.w3.org/2000/svg' xmlns:xlink='http://www.w3.org/1999/xlink'><rect width='24' height='24' stroke='none' fill='#000000' opacity='0'/>


<g transform="matrix(0.16 0 0 0.16 12 12)" >
<path style="stroke: none; stroke-width: 1; stroke-dasharray: none; stroke-linecap: butt; stroke-dashoffset: 0; stroke-linejoin: miter; stroke-miterlimit: 4; fill: rgb(0,0,0); fill-rule: nonzero; opacity: 1;" transform=" translate(-65.11, -64.7)" d="M 90 2.8007812 C 74.8 2.8007812 62.5 14.999219 62 30.699219 C 61.6 45.199219 75.500781 64.300781 83.800781 74.300781 C 85.300781 76.100781 87.6 77.199219 90 77.199219 C 92.4 77.199219 94.599219 76.100781 96.199219 74.300781 C 104.49922 64.200781 118.5 45.199219 118 30.699219 C 117.5 14.999219 105.2 2.8007813 90 2.8007812 z M 90 20.800781 C 95.5 20.800781 100 25.300781 100 30.800781 C 100 36.300781 95.5 40.800781 90 40.800781 C 84.5 40.800781 80 36.300781 80 30.800781 C 80 25.300781 84.5 20.800781 90 20.800781 z M 44.242188 50.603516 C 43.8625 50.587891 43.474609 50.650781 43.099609 50.800781 C 41.499609 51.400781 40.700781 53.099609 41.300781 54.599609 L 45 65 C 45.4 66.2 46.600781 67 47.800781 67 C 48.100781 67 48.500781 66.900781 48.800781 66.800781 L 58.199219 63.400391 C 59.799219 62.800391 60.6 61.099609 60 59.599609 C 59.4 58.099609 57.699219 57.199219 56.199219 57.699219 L 49.599609 60.099609 L 46.900391 52.599609 C 46.450391 51.399609 45.38125 50.650391 44.242188 50.603516 z M 32.941406 54.703125 C 32.561719 54.6875 32.175781 54.750391 31.800781 54.900391 C 30.200781 55.500391 29.4 57.199219 30 58.699219 L 39.599609 85 L 14.199219 94.199219 C 12.599219 94.899219 11.800391 96.599219 12.400391 98.199219 C 12.800391 99.399219 13.999219 100.19922 15.199219 100.19922 C 15.499219 100.19922 15.899219 100.1 16.199219 100 L 41.599609 90.800781 L 53.900391 124.59961 C 54.300391 125.79961 55.499219 126.59961 56.699219 126.59961 C 56.999219 126.59961 57.399219 126.50039 57.699219 126.40039 C 59.299219 125.80039 60.1 124.09961 59.5 122.59961 L 46.199219 85.800781 L 35.599609 56.699219 C 35.149609 55.499219 34.080469 54.75 32.941406 54.703125 z M 66.099609 66.945312 C 65.705859 66.925 65.300391 66.974609 64.900391 67.099609 L 50.800781 72.300781 C 50.700781 72.300781 50.6 72.400391 50.5 72.400391 C 50.4 72.400391 50.299219 72.5 50.199219 72.5 C 50.099219 72.6 50 72.599219 50 72.699219 C 49.9 72.799219 49.800781 72.800391 49.800781 72.900391 C 49.700781 73.000391 49.699609 73.099609 49.599609 73.099609 L 49.400391 73.300781 C 49.300391 73.400781 49.299219 73.499609 49.199219 73.599609 C 49.199219 73.699609 49.099609 73.800781 49.099609 73.800781 C 49.099609 73.900781 49 73.999609 49 74.099609 C 49 74.199609 48.900391 74.300391 48.900391 74.400391 L 48.900391 74.699219 L 48.900391 75 L 48.900391 75.300781 L 48.900391 75.599609 C 48.900391 75.699609 49 75.800391 49 75.900391 C 49 76.000391 48.999609 76.099219 49.099609 76.199219 L 65.199219 120.30078 C 65.599219 121.50078 66.8 122.30078 68 122.30078 C 68.3 122.30078 68.7 122.19961 69 122.09961 C 70.6 121.49961 71.400781 119.80078 70.800781 118.30078 L 64.300781 100.40039 L 96.199219 88.800781 L 98.599609 95.400391 C 98.999609 96.600391 100.20039 97.400391 101.40039 97.400391 C 101.70039 97.400391 102.10039 97.299219 102.40039 97.199219 C 104.00039 96.599219 104.79922 94.900391 104.19922 93.400391 L 101.80078 86.800781 L 108.40039 84.400391 C 110.00039 83.800391 110.79922 82.099609 110.19922 80.599609 C 109.59922 78.999609 107.90039 78.200781 106.40039 78.800781 L 97 82.199219 L 62.300781 94.900391 L 55.800781 77 L 67 72.800781 C 68.6 72.200781 69.300781 70.500391 68.800781 68.900391 C 68.350781 67.700391 67.280859 67.00625 66.099609 66.945312 z" stroke-linecap="round" />
</g>
</svg>