<svg id='Trash_Can_24' width='24' height='24' viewBox='0 0 24 24' xmlns='http://www.w3.org/2000/svg' xmlns:xlink='http://www.w3.org/1999/xlink'><rect width='24' height='24' stroke='none' fill='#000000' opacity='0'/>


<g transform="matrix(0.87 0 0 0.87 12 12)" >
<path style="stroke: none; stroke-width: 1; stroke-dasharray: none; stroke-linecap: butt; stroke-dashoffset: 0; stroke-linejoin: miter; stroke-miterlimit: 4; fill: rgb(0,0,0); fill-rule: nonzero; opacity: 1;" transform=" translate(-15, -14.5)" d="M 13 3 C 12.732430633846345 2.996368577261966 12.47456599490831 3.1001168838017876 12.284068139451957 3.288045380846545 C 12.093570283995604 3.475973877891302 11.986330115219811 3.7324059923494244 11.986328 4.000000000000001 L 6 4 C 5.639364083422431 3.994899710454515 5.303918635428393 4.184375296169332 5.122112278513483 4.495872849714331 C 4.940305921598572 4.80737040325933 4.940305921598573 5.192629596740671 5.122112278513484 5.504127150285671 C 5.303918635428394 5.815624703830669 5.639364083422431 6.005100289545485 6.000000000000001 6 L 24 6 C 24.360635916577568 6.005100289545485 24.696081364571608 5.815624703830668 24.877887721486516 5.50412715028567 C 25.059694078401428 5.19262959674067 25.059694078401428 4.80737040325933 24.877887721486516 4.495872849714331 C 24.696081364571608 4.184375296169332 24.360635916577568 3.994899710454515 24 4 L 18.013672 4 C 18.01366988478019 3.732405992349424 17.906429716004396 3.4759738778913007 17.715931860548043 3.288045380846544 C 17.52543400509169 3.1001168838017867 17.267569366153655 2.9963685772619657 17 3 L 13 3 z M 6 8 L 6 24 C 6 25.105 6.895 26 8 26 L 22 26 C 23.105 26 24 25.105 24 24 L 24 8 L 6 8 z" stroke-linecap="round" />
</g>
</svg>